<mxfile host="app.diagrams.net" modified="2024-02-02T14:58:35.237Z" agent="Mozilla/5.0 (Macintosh; Intel Mac OS X 10_15_7) AppleWebKit/537.36 (KHTML, like Gecko) Chrome/120.0.0.0 Safari/537.36" etag="S5TO5nYqPgmV0yXXeP2A" version="23.0.2" type="device" pages="2">
  <diagram name="Page-1" id="KUGt1gyjp17koe7uLikq">
    <mxGraphModel dx="1980" dy="1358" grid="0" gridSize="10" guides="1" tooltips="1" connect="1" arrows="1" fold="1" page="1" pageScale="1" pageWidth="1100" pageHeight="850" math="0" shadow="0">
      <root>
        <object label="" id="0">
          <mxCell />
        </object>
        <mxCell id="1" parent="0" />
        <mxCell id="izujS56kX8gQX9ka1Kyw-1" value="" style="outlineConnect=0;dashed=0;verticalLabelPosition=bottom;verticalAlign=top;align=center;html=1;shape=mxgraph.aws3.elastic_load_balancing;fillColor=#F58534;gradientColor=none;" parent="1" vertex="1">
          <mxGeometry x="-619" y="-440" width="79" height="67" as="geometry" />
        </mxCell>
        <mxCell id="izujS56kX8gQX9ka1Kyw-2" value="" style="outlineConnect=0;dashed=0;verticalLabelPosition=bottom;verticalAlign=top;align=center;html=1;shape=mxgraph.aws3.ec2;fillColor=#F58534;gradientColor=none;" parent="1" vertex="1">
          <mxGeometry x="-429" y="-386" width="76.5" height="93" as="geometry" />
        </mxCell>
        <mxCell id="izujS56kX8gQX9ka1Kyw-3" value="" style="outlineConnect=0;dashed=0;verticalLabelPosition=bottom;verticalAlign=top;align=center;html=1;shape=mxgraph.aws3.ec2;fillColor=#F58534;gradientColor=none;" parent="1" vertex="1">
          <mxGeometry x="-429" y="-596" width="76.5" height="93" as="geometry" />
        </mxCell>
        <mxCell id="izujS56kX8gQX9ka1Kyw-4" value="" style="rounded=1;arcSize=10;dashed=1;strokeColor=#F59D56;fillColor=none;gradientColor=none;dashPattern=8 4;strokeWidth=2;" parent="1" vertex="1">
          <mxGeometry x="-469.5" y="-406" width="159.5" height="160" as="geometry" />
        </mxCell>
        <mxCell id="izujS56kX8gQX9ka1Kyw-5" value="" style="rounded=1;arcSize=10;dashed=1;strokeColor=#F59D56;fillColor=none;gradientColor=none;dashPattern=8 4;strokeWidth=2;" parent="1" vertex="1">
          <mxGeometry x="-471.5" y="-615.5" width="161.5" height="149.5" as="geometry" />
        </mxCell>
        <mxCell id="izujS56kX8gQX9ka1Kyw-12" value="Elastic Load Balancing" style="sketch=0;outlineConnect=0;gradientColor=none;html=1;whiteSpace=wrap;fontSize=12;fontStyle=0;shape=mxgraph.aws4.groupCenter;grIcon=mxgraph.aws4.group_elastic_load_balancing;grStroke=1;strokeColor=#007DBC;fillColor=none;verticalAlign=top;align=center;fontColor=#007DBC;dashed=0;spacingTop=25;" parent="1" vertex="1">
          <mxGeometry x="-659" y="-516" width="140" height="190" as="geometry" />
        </mxCell>
        <mxCell id="izujS56kX8gQX9ka1Kyw-14" value="" style="outlineConnect=0;dashed=0;verticalLabelPosition=bottom;verticalAlign=top;align=center;html=1;shape=mxgraph.aws3.user;fillColor=#D2D3D3;gradientColor=none;" parent="1" vertex="1">
          <mxGeometry x="-849" y="-366" width="45" height="63" as="geometry" />
        </mxCell>
        <mxCell id="izujS56kX8gQX9ka1Kyw-15" value="" style="outlineConnect=0;dashed=0;verticalLabelPosition=bottom;verticalAlign=top;align=center;html=1;shape=mxgraph.aws3.user;fillColor=#D2D3D3;gradientColor=none;" parent="1" vertex="1">
          <mxGeometry x="-849" y="-476" width="45" height="63" as="geometry" />
        </mxCell>
        <mxCell id="izujS56kX8gQX9ka1Kyw-16" value="" style="outlineConnect=0;dashed=0;verticalLabelPosition=bottom;verticalAlign=top;align=center;html=1;shape=mxgraph.aws3.user;fillColor=#D2D3D3;gradientColor=none;" parent="1" vertex="1">
          <mxGeometry x="-849" y="-586" width="45" height="63" as="geometry" />
        </mxCell>
        <mxCell id="izujS56kX8gQX9ka1Kyw-17" value="" style="endArrow=classic;html=1;rounded=0;exitX=0.295;exitY=0.512;exitDx=0;exitDy=0;exitPerimeter=0;" parent="1" edge="1">
          <mxGeometry width="50" height="50" relative="1" as="geometry">
            <mxPoint x="-519" y="-449.47" as="sourcePoint" />
            <mxPoint x="-439" y="-516" as="targetPoint" />
          </mxGeometry>
        </mxCell>
        <mxCell id="izujS56kX8gQX9ka1Kyw-19" value="" style="endArrow=classic;html=1;rounded=0;entryX=0.568;entryY=0.706;entryDx=0;entryDy=0;entryPerimeter=0;exitX=1.036;exitY=0.663;exitDx=0;exitDy=0;exitPerimeter=0;" parent="1" source="izujS56kX8gQX9ka1Kyw-12" edge="1">
          <mxGeometry width="50" height="50" relative="1" as="geometry">
            <mxPoint x="-378.065934065934" y="-216" as="sourcePoint" />
            <mxPoint x="-439.0799999999999" y="-355.9200000000001" as="targetPoint" />
          </mxGeometry>
        </mxCell>
        <mxCell id="izujS56kX8gQX9ka1Kyw-20" value="" style="endArrow=classic;html=1;rounded=0;entryX=0.068;entryY=0.427;entryDx=0;entryDy=0;entryPerimeter=0;" parent="1" edge="1">
          <mxGeometry width="50" height="50" relative="1" as="geometry">
            <mxPoint x="-799" y="-546" as="sourcePoint" />
            <mxPoint x="-659.0799999999999" y="-475.89" as="targetPoint" />
          </mxGeometry>
        </mxCell>
        <mxCell id="izujS56kX8gQX9ka1Kyw-21" value="" style="endArrow=classic;html=1;rounded=0;entryX=0.106;entryY=0.523;entryDx=0;entryDy=0;entryPerimeter=0;" parent="1" edge="1">
          <mxGeometry width="50" height="50" relative="1" as="geometry">
            <mxPoint x="-799" y="-426" as="sourcePoint" />
            <mxPoint x="-659.1799999999998" y="-425.8800000000001" as="targetPoint" />
          </mxGeometry>
        </mxCell>
        <mxCell id="izujS56kX8gQX9ka1Kyw-22" value="" style="endArrow=classic;html=1;rounded=0;" parent="1" edge="1">
          <mxGeometry width="50" height="50" relative="1" as="geometry">
            <mxPoint x="-799" y="-316" as="sourcePoint" />
            <mxPoint x="-659" y="-376" as="targetPoint" />
          </mxGeometry>
        </mxCell>
        <mxCell id="izujS56kX8gQX9ka1Kyw-23" value="Ec2-instance1" style="text;html=1;strokeColor=none;fillColor=none;align=center;verticalAlign=middle;whiteSpace=wrap;rounded=0;" parent="1" vertex="1">
          <mxGeometry x="-420.75" y="-506" width="60" height="30" as="geometry" />
        </mxCell>
        <mxCell id="izujS56kX8gQX9ka1Kyw-24" value="Ec2-instance2" style="text;html=1;strokeColor=none;fillColor=none;align=center;verticalAlign=middle;whiteSpace=wrap;rounded=0;" parent="1" vertex="1">
          <mxGeometry x="-420.75" y="-293" width="60" height="30" as="geometry" />
        </mxCell>
        <mxCell id="izujS56kX8gQX9ka1Kyw-25" value="AZ1" style="text;html=1;strokeColor=none;fillColor=none;align=center;verticalAlign=middle;whiteSpace=wrap;rounded=0;" parent="1" vertex="1">
          <mxGeometry x="-449" y="-615.5" width="39.5" height="30" as="geometry" />
        </mxCell>
        <mxCell id="izujS56kX8gQX9ka1Kyw-26" value="AZ2" style="text;html=1;strokeColor=none;fillColor=none;align=center;verticalAlign=middle;whiteSpace=wrap;rounded=0;" parent="1" vertex="1">
          <mxGeometry x="-459.25" y="-403" width="40.25" height="30" as="geometry" />
        </mxCell>
        <mxCell id="izujS56kX8gQX9ka1Kyw-28" value="Region" style="text;html=1;strokeColor=none;fillColor=none;align=center;verticalAlign=middle;whiteSpace=wrap;rounded=0;" parent="1" vertex="1">
          <mxGeometry x="-689" y="-645.5" width="60" height="30" as="geometry" />
        </mxCell>
        <mxCell id="z4RkHW4B1aMtK1B5ozR9-2" value="Deploying&amp;nbsp; Application with High Availability" style="rounded=1;whiteSpace=wrap;html=1;fontSize=50;" parent="1" vertex="1">
          <mxGeometry x="-869" y="-813" width="706" height="133" as="geometry" />
        </mxCell>
        <mxCell id="eIFVqnREZY7FFHyICBpf-4" value="" style="rounded=1;arcSize=10;dashed=1;fillColor=none;gradientColor=none;dashPattern=1 1;strokeWidth=2;" parent="1" vertex="1">
          <mxGeometry x="-722" y="-656" width="474" height="454" as="geometry" />
        </mxCell>
      </root>
    </mxGraphModel>
  </diagram>
  <diagram id="2-esAXaiFw1-v3m1ElKg" name="Page-2">
    <mxGraphModel dx="880" dy="508" grid="0" gridSize="10" guides="1" tooltips="1" connect="1" arrows="1" fold="1" page="1" pageScale="1" pageWidth="850" pageHeight="1100" math="0" shadow="0">
      <root>
        <object label="" step1="configure ec2 instances with basic details&#xa;" id="0">
          <mxCell />
        </object>
        <mxCell id="1" parent="0" />
      </root>
    </mxGraphModel>
  </diagram>
</mxfile>
